<mxfile host="app.diagrams.net" agent="Mozilla/5.0 (Windows NT 10.0; Win64; x64) AppleWebKit/537.36 (KHTML, like Gecko) Chrome/130.0.0.0 Safari/537.36 Edg/130.0.0.0" version="24.8.3">
  <diagram name="Page-1" id="kzbMt0qwAQdANpi8W9Ui">
    <mxGraphModel dx="946" dy="611" grid="1" gridSize="10" guides="1" tooltips="1" connect="1" arrows="1" fold="1" page="1" pageScale="1" pageWidth="827" pageHeight="1169" math="0" shadow="0">
      <root>
        <mxCell id="0" />
        <mxCell id="1" parent="0" />
        <mxCell id="nPTzYKY_LypjdXd9V0ng-8" style="edgeStyle=orthogonalEdgeStyle;rounded=0;orthogonalLoop=1;jettySize=auto;html=1;exitX=0;exitY=0.5;exitDx=0;exitDy=0;entryX=1;entryY=0.5;entryDx=0;entryDy=0;" edge="1" parent="1" source="nPTzYKY_LypjdXd9V0ng-1" target="nPTzYKY_LypjdXd9V0ng-7">
          <mxGeometry relative="1" as="geometry" />
        </mxCell>
        <mxCell id="nPTzYKY_LypjdXd9V0ng-9" style="edgeStyle=orthogonalEdgeStyle;rounded=0;orthogonalLoop=1;jettySize=auto;html=1;exitX=1;exitY=0.5;exitDx=0;exitDy=0;" edge="1" parent="1" source="nPTzYKY_LypjdXd9V0ng-1" target="nPTzYKY_LypjdXd9V0ng-4">
          <mxGeometry relative="1" as="geometry" />
        </mxCell>
        <mxCell id="nPTzYKY_LypjdXd9V0ng-10" style="edgeStyle=orthogonalEdgeStyle;rounded=0;orthogonalLoop=1;jettySize=auto;html=1;exitX=0.5;exitY=1;exitDx=0;exitDy=0;entryX=0.5;entryY=0;entryDx=0;entryDy=0;" edge="1" parent="1" source="nPTzYKY_LypjdXd9V0ng-1" target="nPTzYKY_LypjdXd9V0ng-5">
          <mxGeometry relative="1" as="geometry" />
        </mxCell>
        <mxCell id="nPTzYKY_LypjdXd9V0ng-11" style="edgeStyle=orthogonalEdgeStyle;rounded=0;orthogonalLoop=1;jettySize=auto;html=1;exitX=0.5;exitY=0;exitDx=0;exitDy=0;entryX=0.5;entryY=1;entryDx=0;entryDy=0;" edge="1" parent="1" source="nPTzYKY_LypjdXd9V0ng-1" target="nPTzYKY_LypjdXd9V0ng-2">
          <mxGeometry relative="1" as="geometry" />
        </mxCell>
        <mxCell id="nPTzYKY_LypjdXd9V0ng-15" style="edgeStyle=orthogonalEdgeStyle;rounded=0;orthogonalLoop=1;jettySize=auto;html=1;exitX=0.5;exitY=0;exitDx=0;exitDy=0;entryX=0.5;entryY=1;entryDx=0;entryDy=0;" edge="1" parent="1" source="nPTzYKY_LypjdXd9V0ng-1" target="nPTzYKY_LypjdXd9V0ng-14">
          <mxGeometry relative="1" as="geometry" />
        </mxCell>
        <mxCell id="nPTzYKY_LypjdXd9V0ng-1" value="Frosty" style="rounded=0;whiteSpace=wrap;html=1;" vertex="1" parent="1">
          <mxGeometry x="360" y="320" width="120" height="40" as="geometry" />
        </mxCell>
        <mxCell id="nPTzYKY_LypjdXd9V0ng-2" value="Kaniox" style="rounded=0;whiteSpace=wrap;html=1;" vertex="1" parent="1">
          <mxGeometry x="200" y="240" width="120" height="40" as="geometry" />
        </mxCell>
        <mxCell id="nPTzYKY_LypjdXd9V0ng-3" value="" style="endArrow=none;html=1;rounded=0;entryX=0.5;entryY=1;entryDx=0;entryDy=0;exitX=0.5;exitY=0;exitDx=0;exitDy=0;" edge="1" parent="1" source="nPTzYKY_LypjdXd9V0ng-1" target="nPTzYKY_LypjdXd9V0ng-2">
          <mxGeometry width="50" height="50" relative="1" as="geometry">
            <mxPoint x="390" y="340" as="sourcePoint" />
            <mxPoint x="440" y="290" as="targetPoint" />
            <Array as="points">
              <mxPoint x="420" y="300" />
              <mxPoint x="260" y="300" />
            </Array>
          </mxGeometry>
        </mxCell>
        <mxCell id="nPTzYKY_LypjdXd9V0ng-13" style="edgeStyle=orthogonalEdgeStyle;rounded=0;orthogonalLoop=1;jettySize=auto;html=1;exitX=1;exitY=0.5;exitDx=0;exitDy=0;" edge="1" parent="1" source="nPTzYKY_LypjdXd9V0ng-4" target="nPTzYKY_LypjdXd9V0ng-12">
          <mxGeometry relative="1" as="geometry" />
        </mxCell>
        <mxCell id="nPTzYKY_LypjdXd9V0ng-19" value="" style="edgeStyle=orthogonalEdgeStyle;rounded=0;orthogonalLoop=1;jettySize=auto;html=1;" edge="1" parent="1" source="nPTzYKY_LypjdXd9V0ng-4" target="nPTzYKY_LypjdXd9V0ng-18">
          <mxGeometry relative="1" as="geometry" />
        </mxCell>
        <mxCell id="nPTzYKY_LypjdXd9V0ng-23" style="edgeStyle=orthogonalEdgeStyle;rounded=0;orthogonalLoop=1;jettySize=auto;html=1;exitX=0.5;exitY=1;exitDx=0;exitDy=0;entryX=0.5;entryY=0;entryDx=0;entryDy=0;" edge="1" parent="1" source="nPTzYKY_LypjdXd9V0ng-4" target="nPTzYKY_LypjdXd9V0ng-22">
          <mxGeometry relative="1" as="geometry" />
        </mxCell>
        <mxCell id="nPTzYKY_LypjdXd9V0ng-27" style="edgeStyle=orthogonalEdgeStyle;rounded=0;orthogonalLoop=1;jettySize=auto;html=1;exitX=0.5;exitY=0;exitDx=0;exitDy=0;entryX=0.5;entryY=1;entryDx=0;entryDy=0;" edge="1" parent="1" source="nPTzYKY_LypjdXd9V0ng-4" target="nPTzYKY_LypjdXd9V0ng-26">
          <mxGeometry relative="1" as="geometry" />
        </mxCell>
        <mxCell id="nPTzYKY_LypjdXd9V0ng-35" style="edgeStyle=orthogonalEdgeStyle;rounded=0;orthogonalLoop=1;jettySize=auto;html=1;exitX=0.5;exitY=0;exitDx=0;exitDy=0;entryX=0.5;entryY=1;entryDx=0;entryDy=0;" edge="1" parent="1" source="nPTzYKY_LypjdXd9V0ng-4" target="nPTzYKY_LypjdXd9V0ng-34">
          <mxGeometry relative="1" as="geometry" />
        </mxCell>
        <mxCell id="nPTzYKY_LypjdXd9V0ng-4" value="Souky" style="rounded=0;whiteSpace=wrap;html=1;" vertex="1" parent="1">
          <mxGeometry x="520" y="320" width="120" height="40" as="geometry" />
        </mxCell>
        <mxCell id="nPTzYKY_LypjdXd9V0ng-5" value="Undeadspacewolf" style="rounded=0;whiteSpace=wrap;html=1;" vertex="1" parent="1">
          <mxGeometry x="360" y="400" width="120" height="40" as="geometry" />
        </mxCell>
        <mxCell id="nPTzYKY_LypjdXd9V0ng-17" style="edgeStyle=orthogonalEdgeStyle;rounded=0;orthogonalLoop=1;jettySize=auto;html=1;exitX=0;exitY=0.5;exitDx=0;exitDy=0;entryX=1;entryY=0.5;entryDx=0;entryDy=0;" edge="1" parent="1" source="nPTzYKY_LypjdXd9V0ng-7" target="nPTzYKY_LypjdXd9V0ng-16">
          <mxGeometry relative="1" as="geometry" />
        </mxCell>
        <mxCell id="nPTzYKY_LypjdXd9V0ng-31" style="edgeStyle=orthogonalEdgeStyle;rounded=0;orthogonalLoop=1;jettySize=auto;html=1;exitX=0.5;exitY=1;exitDx=0;exitDy=0;entryX=0.5;entryY=0;entryDx=0;entryDy=0;" edge="1" parent="1" source="nPTzYKY_LypjdXd9V0ng-7" target="nPTzYKY_LypjdXd9V0ng-30">
          <mxGeometry relative="1" as="geometry" />
        </mxCell>
        <mxCell id="nPTzYKY_LypjdXd9V0ng-33" style="edgeStyle=orthogonalEdgeStyle;rounded=0;orthogonalLoop=1;jettySize=auto;html=1;exitX=0.5;exitY=1;exitDx=0;exitDy=0;entryX=0.5;entryY=0;entryDx=0;entryDy=0;" edge="1" parent="1" source="nPTzYKY_LypjdXd9V0ng-7" target="nPTzYKY_LypjdXd9V0ng-32">
          <mxGeometry relative="1" as="geometry" />
        </mxCell>
        <mxCell id="nPTzYKY_LypjdXd9V0ng-7" value="Kio" style="rounded=0;whiteSpace=wrap;html=1;" vertex="1" parent="1">
          <mxGeometry x="200" y="320" width="120" height="40" as="geometry" />
        </mxCell>
        <mxCell id="nPTzYKY_LypjdXd9V0ng-12" value="JeanNÃ©gro" style="rounded=0;whiteSpace=wrap;html=1;" vertex="1" parent="1">
          <mxGeometry x="680" y="320" width="120" height="40" as="geometry" />
        </mxCell>
        <mxCell id="nPTzYKY_LypjdXd9V0ng-21" style="edgeStyle=orthogonalEdgeStyle;rounded=0;orthogonalLoop=1;jettySize=auto;html=1;exitX=0.5;exitY=0;exitDx=0;exitDy=0;entryX=0.5;entryY=1;entryDx=0;entryDy=0;" edge="1" parent="1" source="nPTzYKY_LypjdXd9V0ng-14" target="nPTzYKY_LypjdXd9V0ng-20">
          <mxGeometry relative="1" as="geometry" />
        </mxCell>
        <mxCell id="nPTzYKY_LypjdXd9V0ng-14" value="Onyxe" style="rounded=0;whiteSpace=wrap;html=1;" vertex="1" parent="1">
          <mxGeometry x="360" y="240" width="120" height="40" as="geometry" />
        </mxCell>
        <mxCell id="nPTzYKY_LypjdXd9V0ng-16" value="Ticarno" style="rounded=0;whiteSpace=wrap;html=1;" vertex="1" parent="1">
          <mxGeometry x="40" y="320" width="120" height="40" as="geometry" />
        </mxCell>
        <mxCell id="nPTzYKY_LypjdXd9V0ng-18" value="Kyubie" style="rounded=0;whiteSpace=wrap;html=1;" vertex="1" parent="1">
          <mxGeometry x="520" y="400" width="120" height="40" as="geometry" />
        </mxCell>
        <mxCell id="nPTzYKY_LypjdXd9V0ng-20" value="BioTheFox" style="rounded=0;whiteSpace=wrap;html=1;" vertex="1" parent="1">
          <mxGeometry x="360" y="160" width="120" height="40" as="geometry" />
        </mxCell>
        <mxCell id="nPTzYKY_LypjdXd9V0ng-25" value="" style="edgeStyle=orthogonalEdgeStyle;rounded=0;orthogonalLoop=1;jettySize=auto;html=1;" edge="1" parent="1" source="nPTzYKY_LypjdXd9V0ng-22" target="nPTzYKY_LypjdXd9V0ng-24">
          <mxGeometry relative="1" as="geometry" />
        </mxCell>
        <mxCell id="nPTzYKY_LypjdXd9V0ng-22" value="Saarlos" style="rounded=0;whiteSpace=wrap;html=1;" vertex="1" parent="1">
          <mxGeometry x="680" y="400" width="120" height="40" as="geometry" />
        </mxCell>
        <mxCell id="nPTzYKY_LypjdXd9V0ng-24" value="Sky_Mitou" style="rounded=0;whiteSpace=wrap;html=1;" vertex="1" parent="1">
          <mxGeometry x="680" y="480" width="120" height="40" as="geometry" />
        </mxCell>
        <mxCell id="nPTzYKY_LypjdXd9V0ng-29" style="edgeStyle=orthogonalEdgeStyle;rounded=0;orthogonalLoop=1;jettySize=auto;html=1;exitX=0.5;exitY=0;exitDx=0;exitDy=0;entryX=0.5;entryY=1;entryDx=0;entryDy=0;" edge="1" parent="1" source="nPTzYKY_LypjdXd9V0ng-26" target="nPTzYKY_LypjdXd9V0ng-28">
          <mxGeometry relative="1" as="geometry" />
        </mxCell>
        <mxCell id="nPTzYKY_LypjdXd9V0ng-26" value="Lunazule" style="rounded=0;whiteSpace=wrap;html=1;" vertex="1" parent="1">
          <mxGeometry x="520" y="240" width="120" height="40" as="geometry" />
        </mxCell>
        <mxCell id="nPTzYKY_LypjdXd9V0ng-28" value="Wilitox" style="rounded=0;whiteSpace=wrap;html=1;" vertex="1" parent="1">
          <mxGeometry x="520" y="160" width="120" height="40" as="geometry" />
        </mxCell>
        <mxCell id="nPTzYKY_LypjdXd9V0ng-30" value="360ingame" style="rounded=0;whiteSpace=wrap;html=1;" vertex="1" parent="1">
          <mxGeometry x="200" y="400" width="120" height="40" as="geometry" />
        </mxCell>
        <mxCell id="nPTzYKY_LypjdXd9V0ng-32" value="Rozy" style="rounded=0;whiteSpace=wrap;html=1;" vertex="1" parent="1">
          <mxGeometry x="40" y="400" width="120" height="40" as="geometry" />
        </mxCell>
        <mxCell id="nPTzYKY_LypjdXd9V0ng-34" value="Lenbow" style="rounded=0;whiteSpace=wrap;html=1;" vertex="1" parent="1">
          <mxGeometry x="680" y="240" width="120" height="40" as="geometry" />
        </mxCell>
      </root>
    </mxGraphModel>
  </diagram>
</mxfile>
